# xmcd CD database file
#
# Track frame offsets:
#	150
#	18859
#	33568
#	52501
#	67411
#	80718
#	97402
#	118621
#	130816
#	143412
#	157162
#	168175
#	178882
#	195035
#	206742
#
# Disc length: 2997 seconds
#
# Revision: 2
# Processed by: cddbd v1.5.2PL0 Copyright (c) Steve Scherf et al.
# Submitted via: CDex 1.51
#
DISCID=cf0bb30f
DTITLE=Parchment - Simply Parchment - Light Up the Fire 
DYEAR=2004
DGENRE=Folk/Rock
TTITLE0=Vision
TTITLE1=Hard Road
TTITLE2=Lovely Touching
TTITLE3=Where Can I Find You
TTITLE4=You Were On My Mind
TTITLE5=Love Is Come Again
TTITLE6=People and Places
TTITLE7=Denomination Blues
TTITLE8=Do You Love Me
TTITLE9=You Are My Morning
TTITLE10=Getting Out of This Town
TTITLE11=Butterfly
TTITLE12=Glory Shone Around
TTITLE13=Better Than Yesterday
TTITLE14=Pack Up Your Sorrows
EXTD=YEAR: 2004
EXTT0=
EXTT1=
EXTT2=
EXTT3=
EXTT4=
EXTT5=
EXTT6=
EXTT7=
EXTT8=
EXTT9=
EXTT10=
EXTT11=
EXTT12=
EXTT13=
EXTT14=
PLAYORDER=
